<mxfile host="app.diagrams.net" modified="2021-12-16T17:35:44.467Z" agent="5.0 (Windows NT 10.0; Win64; x64) AppleWebKit/537.36 (KHTML, like Gecko) Chrome/96.0.4664.110 Safari/537.36" etag="-iFvGR7ipV_efr54KzzX" compressed="false" version="15.9.6" type="device">
  <diagram name="Page-1" id="e7e014a7-5840-1c2e-5031-d8a46d1fe8dd">
    <mxGraphModel dx="4329" dy="1747" grid="1" gridSize="10" guides="1" tooltips="1" connect="1" arrows="1" fold="1" page="1" pageScale="1" pageWidth="1169" pageHeight="826" background="#ffffff" math="0" shadow="0">
      <root>
        <mxCell id="0" />
        <mxCell id="1" parent="0" />
        <mxCell id="htOqAZJMkgFXpFxrz-X8-2" value="" style="group" vertex="1" connectable="0" parent="1">
          <mxGeometry x="-100" y="100" width="2618.4" height="1039.05" as="geometry" />
        </mxCell>
        <mxCell id="0K92tgQqKM5XLM2mHAEs-52" value="" style="group;fontSize=40;" parent="htOqAZJMkgFXpFxrz-X8-2" vertex="1" connectable="0">
          <mxGeometry width="2618.4" height="955.9260000000002" as="geometry" />
        </mxCell>
        <mxCell id="0K92tgQqKM5XLM2mHAEs-41" value="" style="shape=cube;whiteSpace=wrap;html=1;boundedLbl=1;backgroundOutline=1;darkOpacity=0.05;darkOpacity2=0.1;flipH=1;fontSize=40;" parent="0K92tgQqKM5XLM2mHAEs-52" vertex="1">
          <mxGeometry width="2618.4" height="955.9260000000002" as="geometry" />
        </mxCell>
        <mxCell id="0K92tgQqKM5XLM2mHAEs-43" value="&lt;span style=&quot;font-size: 40px;&quot;&gt;«&lt;/span&gt;&lt;span lang=&quot;EN-US&quot; style=&quot;font-size: 40px;&quot;&gt;device&lt;/span&gt;&lt;span style=&quot;font-size: 40px;&quot;&gt;»&lt;/span&gt;&lt;br style=&quot;font-size: 40px;&quot;&gt;&lt;font style=&quot;font-size: 40px;&quot;&gt;PC/Laptop&lt;/font&gt;" style="text;whiteSpace=wrap;html=1;align=center;fontSize=40;" parent="0K92tgQqKM5XLM2mHAEs-52" vertex="1">
          <mxGeometry y="41.562000000000005" width="2580.175182481752" height="103.90500000000002" as="geometry" />
        </mxCell>
        <mxCell id="0K92tgQqKM5XLM2mHAEs-44" value="" style="shape=cube;whiteSpace=wrap;html=1;boundedLbl=1;backgroundOutline=1;darkOpacity=0.05;darkOpacity2=0.1;flipH=1;fontSize=40;" parent="htOqAZJMkgFXpFxrz-X8-2" vertex="1">
          <mxGeometry y="166.24800000000002" width="727.3333333333334" height="789.6780000000001" as="geometry" />
        </mxCell>
        <mxCell id="0K92tgQqKM5XLM2mHAEs-45" value="&lt;span style=&quot;font-size: 40px;&quot;&gt;«execution environment&lt;/span&gt;&lt;span style=&quot;font-size: 40px;&quot;&gt;»&lt;/span&gt;&lt;br style=&quot;font-size: 40px;&quot;&gt;&lt;span style=&quot;font-size: 40px;&quot;&gt;Browser on Chromium&lt;/span&gt;" style="text;whiteSpace=wrap;html=1;align=center;fontSize=40;" parent="htOqAZJMkgFXpFxrz-X8-2" vertex="1">
          <mxGeometry y="207.81" width="685.7714285714286" height="103.905" as="geometry" />
        </mxCell>
        <mxCell id="0K92tgQqKM5XLM2mHAEs-46" value="" style="shape=cube;whiteSpace=wrap;html=1;boundedLbl=1;backgroundOutline=1;darkOpacity=0.05;darkOpacity2=0.1;flipH=1;fillOpacity=50;fontSize=40;" parent="htOqAZJMkgFXpFxrz-X8-2" vertex="1">
          <mxGeometry y="332.49600000000004" width="574.2192761904762" height="623.4300000000001" as="geometry" />
        </mxCell>
        <mxCell id="0K92tgQqKM5XLM2mHAEs-47" value="&lt;span style=&quot;font-size: 40px;&quot;&gt;React Application&lt;/span&gt;" style="text;whiteSpace=wrap;html=1;align=center;fontSize=40;" parent="htOqAZJMkgFXpFxrz-X8-2" vertex="1">
          <mxGeometry y="374.058" width="540.3047619047619" height="103.905" as="geometry" />
        </mxCell>
        <mxCell id="0K92tgQqKM5XLM2mHAEs-48" value="JSX &#xa;Components" style="shape=module;align=left;spacingLeft=20;align=center;verticalAlign=top;fontSize=40;" parent="htOqAZJMkgFXpFxrz-X8-2" vertex="1">
          <mxGeometry x="124.6857142857143" y="519.525" width="290.93333333333334" height="145.467" as="geometry" />
        </mxCell>
        <mxCell id="0K92tgQqKM5XLM2mHAEs-49" value="React-redux" style="shape=module;align=left;spacingLeft=20;align=center;verticalAlign=top;fontSize=40;" parent="htOqAZJMkgFXpFxrz-X8-2" vertex="1">
          <mxGeometry x="124.6857142857143" y="706.5540000000001" width="290.93333333333334" height="145.467" as="geometry" />
        </mxCell>
        <mxCell id="0K92tgQqKM5XLM2mHAEs-50" value="" style="shape=cube;whiteSpace=wrap;html=1;boundedLbl=1;backgroundOutline=1;darkOpacity=0.05;darkOpacity2=0.1;flipH=1;fillOpacity=50;fontSize=40;" parent="htOqAZJMkgFXpFxrz-X8-2" vertex="1">
          <mxGeometry x="862.4095238095239" y="166.24800000000002" width="727.3333333333334" height="789.6780000000001" as="geometry" />
        </mxCell>
        <mxCell id="0K92tgQqKM5XLM2mHAEs-51" value="" style="shape=cube;whiteSpace=wrap;html=1;boundedLbl=1;backgroundOutline=1;darkOpacity=0.05;darkOpacity2=0.1;flipH=1;fillOpacity=50;fontSize=40;" parent="htOqAZJMkgFXpFxrz-X8-2" vertex="1">
          <mxGeometry x="1739.3657142857144" y="166.24800000000002" width="727.3333333333334" height="789.6780000000001" as="geometry" />
        </mxCell>
        <mxCell id="0K92tgQqKM5XLM2mHAEs-55" value="" style="shape=cube;whiteSpace=wrap;html=1;boundedLbl=1;backgroundOutline=1;darkOpacity=0.05;darkOpacity2=0.1;flipH=1;fillColor=#f5f5f5;strokeColor=#666666;fontColor=#333333;fontSize=40;" parent="htOqAZJMkgFXpFxrz-X8-2" vertex="1">
          <mxGeometry x="862.4095238095239" y="332.49600000000004" width="574.2192761904762" height="623.4300000000001" as="geometry" />
        </mxCell>
        <mxCell id="0K92tgQqKM5XLM2mHAEs-56" value="&lt;span style=&quot;font-size: 40px;&quot;&gt;«execution environment&lt;/span&gt;&lt;span style=&quot;font-size: 40px;&quot;&gt;»&lt;/span&gt;&lt;br style=&quot;font-size: 40px;&quot;&gt;&lt;span style=&quot;font-size: 40px;&quot;&gt;NodeJS&lt;/span&gt;" style="text;whiteSpace=wrap;html=1;align=center;fontSize=40;" parent="htOqAZJMkgFXpFxrz-X8-2" vertex="1">
          <mxGeometry x="955.9238095238096" y="207.81" width="685.7714285714286" height="103.905" as="geometry" />
        </mxCell>
        <mxCell id="0K92tgQqKM5XLM2mHAEs-57" value="&lt;span style=&quot;font-size: 40px;&quot;&gt;«database&lt;/span&gt;&lt;span style=&quot;font-size: 40px;&quot;&gt;»&lt;/span&gt;&lt;br style=&quot;font-size: 40px;&quot;&gt;&lt;span style=&quot;font-size: 40px;&quot;&gt;PostgreSQL&lt;/span&gt;" style="text;whiteSpace=wrap;html=1;align=center;fontSize=40;" parent="htOqAZJMkgFXpFxrz-X8-2" vertex="1">
          <mxGeometry x="1739.3657142857144" y="207.81" width="685.7714285714286" height="103.905" as="geometry" />
        </mxCell>
        <mxCell id="0K92tgQqKM5XLM2mHAEs-58" value="&lt;span style=&quot;font-size: 40px;&quot;&gt;ExpressJS Application&lt;/span&gt;" style="text;whiteSpace=wrap;html=1;align=center;fontSize=40;" parent="htOqAZJMkgFXpFxrz-X8-2" vertex="1">
          <mxGeometry x="862.4095238095239" y="374.058" width="540.3047619047619" height="103.905" as="geometry" />
        </mxCell>
        <mxCell id="0K92tgQqKM5XLM2mHAEs-59" value="Route &#xa;Handler" style="shape=module;align=left;spacingLeft=20;align=center;verticalAlign=top;fontSize=40;" parent="htOqAZJMkgFXpFxrz-X8-2" vertex="1">
          <mxGeometry x="1004.0524952380953" y="623.4300000000001" width="290.93333333333334" height="145.467" as="geometry" />
        </mxCell>
        <mxCell id="0K92tgQqKM5XLM2mHAEs-60" value="Express &#xa;Middlewares" style="shape=module;align=left;spacingLeft=20;align=center;verticalAlign=top;fontSize=40;" parent="htOqAZJMkgFXpFxrz-X8-2" vertex="1">
          <mxGeometry x="1004.0524952380953" y="789.6780000000001" width="290.93333333333334" height="145.467" as="geometry" />
        </mxCell>
        <mxCell id="0K92tgQqKM5XLM2mHAEs-61" value="Application&#xa;Methods" style="shape=module;align=left;spacingLeft=20;align=center;verticalAlign=top;fontSize=40;" parent="htOqAZJMkgFXpFxrz-X8-2" vertex="1">
          <mxGeometry x="1004.0524952380953" y="457.182" width="290.93333333333334" height="145.467" as="geometry" />
        </mxCell>
        <mxCell id="0K92tgQqKM5XLM2mHAEs-62" value="Scheme&#xa;&quot;Users&quot;" style="shape=module;align=left;spacingLeft=20;align=center;verticalAlign=top;fontSize=40;" parent="htOqAZJMkgFXpFxrz-X8-2" vertex="1">
          <mxGeometry x="1766.3809523809523" y="374.058" width="290.93333333333334" height="145.467" as="geometry" />
        </mxCell>
        <mxCell id="0K92tgQqKM5XLM2mHAEs-63" value="Scheme&#xa;&quot;Movies&quot;" style="shape=module;align=left;spacingLeft=20;align=center;verticalAlign=top;fontSize=40;" parent="htOqAZJMkgFXpFxrz-X8-2" vertex="1">
          <mxGeometry x="1766.3809523809523" y="571.4775000000001" width="290.93333333333334" height="145.467" as="geometry" />
        </mxCell>
        <mxCell id="0K92tgQqKM5XLM2mHAEs-64" value="Scheme&#xa;&quot;Hallschemes&quot;" style="shape=module;align=left;spacingLeft=20;align=center;verticalAlign=top;fontSize=40;" parent="htOqAZJMkgFXpFxrz-X8-2" vertex="1">
          <mxGeometry x="1936.784761904762" y="768.8970000000002" width="290.93333333333334" height="145.467" as="geometry" />
        </mxCell>
        <mxCell id="0K92tgQqKM5XLM2mHAEs-66" value="Scheme&#xa;&quot;Reservations&quot;" style="shape=module;align=left;spacingLeft=20;align=center;verticalAlign=top;fontSize=40;" parent="htOqAZJMkgFXpFxrz-X8-2" vertex="1">
          <mxGeometry x="2078.095238095238" y="571.4775000000001" width="290.93333333333334" height="145.467" as="geometry" />
        </mxCell>
        <mxCell id="0K92tgQqKM5XLM2mHAEs-67" value="Scheme&#xa;&quot;Showtimes&quot;" style="shape=module;align=left;spacingLeft=20;align=center;verticalAlign=top;fontSize=40;" parent="htOqAZJMkgFXpFxrz-X8-2" vertex="1">
          <mxGeometry x="2078.095238095238" y="374.058" width="290.93333333333334" height="145.467" as="geometry" />
        </mxCell>
        <mxCell id="0K92tgQqKM5XLM2mHAEs-68" value="" style="endArrow=none;html=1;fontSize=40;edgeStyle=orthogonalEdgeStyle;" parent="htOqAZJMkgFXpFxrz-X8-2" source="0K92tgQqKM5XLM2mHAEs-55" target="0K92tgQqKM5XLM2mHAEs-51" edge="1">
          <mxGeometry width="50" height="50" relative="1" as="geometry">
            <mxPoint x="1662.4761904761904" y="1142.9550000000002" as="sourcePoint" />
            <mxPoint x="1766.3809523809523" y="1039.05" as="targetPoint" />
            <Array as="points">
              <mxPoint x="1267.6380952380953" y="1039.05" />
              <mxPoint x="2306.6857142857143" y="1039.05" />
            </Array>
          </mxGeometry>
        </mxCell>
        <mxCell id="0K92tgQqKM5XLM2mHAEs-74" value="&lt;span style=&quot;font-size: 40px;&quot;&gt;«DB Driver&lt;/span&gt;&lt;span style=&quot;font-size: 40px;&quot;&gt;»&lt;br style=&quot;font-size: 40px;&quot;&gt;&lt;/span&gt;&lt;span style=&quot;font-size: 40px;&quot;&gt;&amp;nbsp;node-postgres&lt;/span&gt;" style="edgeLabel;html=1;align=center;verticalAlign=middle;resizable=0;points=[];fontSize=40;labelBackgroundColor=#ffffff;" parent="0K92tgQqKM5XLM2mHAEs-68" vertex="1" connectable="0">
          <mxGeometry x="-0.0914" relative="1" as="geometry">
            <mxPoint as="offset" />
          </mxGeometry>
        </mxCell>
        <mxCell id="0K92tgQqKM5XLM2mHAEs-69" value="" style="endArrow=none;fontSize=40;edgeStyle=orthogonalEdgeStyle;html=1;" parent="htOqAZJMkgFXpFxrz-X8-2" source="0K92tgQqKM5XLM2mHAEs-46" edge="1">
          <mxGeometry width="50" height="50" relative="1" as="geometry">
            <mxPoint x="207.80218935574243" y="955.9260000000005" as="sourcePoint" />
            <mxPoint x="1146.8567551820727" y="955.9260000000005" as="targetPoint" />
            <Array as="points">
              <mxPoint x="270.15238095238095" y="1039.05" />
              <mxPoint x="1147.1085714285714" y="1039.05" />
            </Array>
          </mxGeometry>
        </mxCell>
        <mxCell id="0K92tgQqKM5XLM2mHAEs-72" value="&lt;span style=&quot;font-size: 40px;&quot;&gt;«protocol&lt;/span&gt;&lt;span style=&quot;font-size: 40px;&quot;&gt;&lt;span style=&quot;font-size: 40px;&quot;&gt;»&lt;br style=&quot;font-size: 40px;&quot;&gt;&lt;/span&gt;&lt;span style=&quot;font-size: 40px;&quot;&gt;REST HTTP&lt;/span&gt;&lt;br style=&quot;font-size: 40px;&quot;&gt;&lt;/span&gt;" style="edgeLabel;html=1;align=center;verticalAlign=middle;resizable=0;points=[];fontSize=40;labelBackgroundColor=#ffffff;" parent="0K92tgQqKM5XLM2mHAEs-69" vertex="1" connectable="0">
          <mxGeometry x="0.0672" y="2" relative="1" as="geometry">
            <mxPoint as="offset" />
          </mxGeometry>
        </mxCell>
      </root>
    </mxGraphModel>
  </diagram>
</mxfile>
